<?xml version="1.0" encoding="UTF-8"?>
<svg width="72px" height="72px" viewBox="0 0 72 72" version="1.1" xmlns="http://www.w3.org/2000/svg" xmlns:xlink="http://www.w3.org/1999/xlink">
    <!-- Generator: Sketch 61 (89581) - https://sketch.com -->
    <title>image-72/clipboard</title>
    <desc>Created with Sketch.</desc>
    <defs>
        <rect id="path-1" x="0" y="0" width="72" height="72"></rect>
    </defs>
    <g id="image-72/clipboard" stroke="none" stroke-width="1" fill="none" fill-rule="evenodd">
        <rect id="Rectangle" fill="#EFF7FF" x="0" y="0" width="72" height="72"></rect>
        <rect id="Rectangle" fill-opacity="0.0996776661" fill="#055CF5" x="8" y="10" width="20" height="20"></rect>
        <rect id="Rectangle-Copy-2" fill-opacity="0.0996776661" fill="#055CF5" x="34" y="10" width="30" height="6"></rect>
        <rect id="Rectangle-Copy-3" fill-opacity="0.0996776661" fill="#055CF5" x="34" y="19" width="24" height="6"></rect>
        <rect id="Rectangle-Copy" fill-opacity="0.0996776661" fill="#055CF5" x="8" y="38" width="20" height="20"></rect>
        <mask id="mask-2" fill="white">
            <use xlink:href="#path-1"></use>
        </mask>
        <g id="Rectangle"></g>
        <g id="Group-12" mask="url(#mask-2)">
            <g transform="translate(77.700173, 53.320309) rotate(25.000000) translate(-77.700173, -53.320309) translate(23.700173, 6.820309)">
                <path d="M13.74432,48.656919 C13.74432,48.656919 7.1088,66.1443136 9.59712,66.7663936 C12.08544,67.3884736 16.7164109,67.319319 17.8223654,57.7116045 C18.92832,48.1039936 22.7990054,52.7349645 22.7990054,52.7349645 C22.7990054,52.7349645 25.9095091,62.8265536 27.0845146,64.2780736 C28.25952,65.7295936 30.434208,69.8767936 34.5122534,69.9458445 C38.5902989,70.014999 38.1436454,67.319319 38.1436454,66.075159 C38.1436454,64.830999 34.48032,64.4854336 34.48032,64.4854336 C34.48032,64.4854336 41.2540454,64.9692045 42.98208,66.075159 C44.7101146,67.1810099 45.7468109,62.4808845 49.7558054,62.8264499 C53.7648,63.172119 55.9766054,64.0706099 55.9766054,64.0706099 L59.9856,61.927959 L34.48032,40.0860045 L25.4256346,40.569879 L19.13568,42.228759 L13.74432,48.656919 Z" id="Fill-1" fill="#D39C7F"></path>
                <path d="M58.4453818,49.7479437 C58.4453818,49.7479437 40.2690336,32.79616 38.1954336,32.79616 C36.1218336,32.79616 19.6022918,35.49184 17.3903827,37.56544 C15.1784736,39.63904 9.51070272,45.5382246 8.81946816,47.0813978 C8.1282336,48.6246746 4.59989952,55.9755866 5.74639296,57.4114509 C7.9053216,60.1153216 13.258009,55.3101683 16.254983,49.7750042 C17.7387475,47.0347418 21.3029549,45.5452749 23.5101984,44.8229363 C25.4110675,44.2008563 31.4936621,45.1166618 33.014233,45.2549709 C34.5348038,45.3931763 33.3889325,47.7778163 33.3198816,52.4088909 C33.2935469,54.1742502 34.0164038,56.0076237 34.6518586,57.6209882 C35.0749766,58.6952166 35.4778771,59.8774797 36.2021856,60.7721344 C36.9065875,61.6421133 37.8446842,62.122048 38.7420346,62.7584358 C40.7709485,64.1976179 43.3944672,64.765888 45.7725754,65.4512128 C50.0986234,66.6980685 54.2758906,68.2553421 58.6580294,69.3353766 C59.9767354,69.6604134 62.5494509,70.3056141 63.7619885,69.4440333 C64.9527533,68.5981082 65.2184851,67.2917402 65.9625965,66.1660864 C66.8629536,64.8037312 68.6073696,63.7982426 67.7973178,61.9594778 C67.1273376,60.4388032 66.6519648,59.2199411 65.6097734,57.897088 C64.484016,56.4683776 63.3148166,55.0739853 62.1132691,53.708416 C60.9339091,52.3679373 59.7534086,50.9681536 58.4453818,49.7479437" id="Fill-3" fill="#E5B99B"></path>
                <path d="M58.7218963,49.9801039 C58.7099731,49.9690102 58.6981536,49.9579164 58.6861267,49.9468227 C55.2738106,46.7701711 51.8180525,43.6374799 48.3090029,40.5680335 C46.0978195,38.6338831 43.8728467,36.7017027 41.5383878,34.9164367 C40.9438867,34.4619036 40.4012256,34.8607606 39.6152275,34.8350479 C38.3173613,34.7926428 37.7411078,35.5520988 37.7836166,36.2865679 C37.8291322,37.0737065 38.6011334,37.3938703 38.0037293,37.8836547 C37.4001043,38.3785193 35.4288365,37.7123753 34.7422675,38.1182825 C33.6893971,38.7406735 36.0001133,38.7230479 35.424793,39.8376079 C34.9782432,40.7028175 33.5416531,41.7960195 32.547673,44.8142479 C31.5536928,47.8324764 30.5464416,50.641686 31.0950125,53.3015964 C32.0305171,57.8377001 44.4215213,74.7009411 52.6790112,76.4107279 C82.8196166,82.6519529 58.7218963,49.9801039 58.7218963,49.9801039" id="Fill-5" fill="#E5B99B"></path>
                <path d="M78.3027963,1.96120181 L8.00752137,58.2419278 C3.1194413,62.8972227 0.870660138,65.4466501 1.26117789,65.8902098 C1.65169564,66.3337695 4.7055821,64.6988008 10.4228373,60.9853035 L81.2178413,5.36959668 L78.3027963,1.96120181 Z" id="Fill-7" fill="#62656A" transform="translate(41.217841, 33.961202) rotate(2.000000) translate(-41.217841, -33.961202) "></path>
                <path d="M107.42203,70.3282163 C107.42203,70.3282163 71.4422711,60.7206054 68.3318711,58.8543654 C65.2214711,56.9881254 55.2362577,43.6599578 48.6698922,43.7167993 C35.653594,43.8300966 31.8072733,50.0275686 26.8997879,50.9952141 C22.0806378,51.945545 20.1935581,51.3494886 15.6624311,52.288 C12.3875946,52.9662746 7.66891046,53.6883021 7.2513911,57.4669197 C6.88415654,60.7896563 9.2342711,61.8609818 14.0035511,61.5845709 C18.7728311,61.3080563 21.4368887,60.9555443 26.8282487,63.1412224 C32.2196087,65.3269005 34.3939857,69.1532109 42.8957457,71.1576563 C51.3975057,73.1621018 58.0010922,73.8533363 61.2498013,76.3416563 C64.4985105,78.8299763 92.0773905,92.3083763 92.0773905,92.3083763" id="Fill-9" fill="#E5B99B"></path>
            </g>
        </g>
        <polygon id="Path-2" fill="#055CF5" fill-rule="nonzero" mask="url(#mask-2)" points="32.1039423 8.05134402 36.948656 13.1039423 20.5072382 28.8688929 9.05063767 17.694625 13.9382539 12.6835166 20.548 19.131"></polygon>
    </g>
</svg>