<svg xmlns="http://www.w3.org/2000/svg" xmlns:xlink="http://www.w3.org/1999/xlink" width="72" height="72" viewBox="0 0 72 72">
    <defs>
        <path id="a" d="M0 0h72v72H0z"/>
    </defs>
    <g fill="none" fill-rule="evenodd">
        <mask id="b" fill="#fff">
            <use xlink:href="#a"/>
        </mask>
        <path fill="#EFF7FF" d="M0 0l72 36L0 72z" mask="url(#b)"/>
        <g mask="url(#b)">
            <path fill="#A3A7AE" d="M73 59.2c-8.141.2-13.68.554-16.615 1.062-8.844 1.532-13.36 4.24-15.008 5.396-2.47 1.732-4.297 3.846-5.481 6.342H73V59.2z"/>
            <g transform="rotate(9 37.86 124.473)">
                <path fill="#F2CCAB" d="M60.441 60.51c-2.33-2.474-3.874-5.565-4.63-9.272-.756-3.708-.939-7.69-.548-11.95-.013-5.08-.43-8.971-1.248-11.673-1.649-5.444-5.174-11.73-12.706-13.633 0 0-15.136-6.873-22.757 3.683-1.069 1.48-.71.169-1.847 4.627-1.247 4.895 1.912 13.275 2.259 14.705.491 2.028-1.736 6.578-1.232 8.236.337 1.105 1.624 1.73 3.862 1.873.888 1.67 1.905 3.446 3.052 5.33 1.346 2.212 2.232 3.03 4.315 3.47 1.562.33 4.911-.059 10.049-1.168l1.917 6.77-2.082 6.104c3.239.452 6.84.122 10.802-.987 3.962-1.11 7.56-3.149 10.794-6.116z"/>
                <path fill="#6A5846" d="M23.802 37.63c-.692.23-1.705-.604-2.034-1.63-.328-1.026-.025-2.258.806-2.54.832-.282 1.78.432 2.118 1.595.242 1.178-.198 2.346-.89 2.576z" opacity=".6"/>
                <path fill="#2E3035" d="M44.741 31.066c-.607-3.217-3.786-3.88-9.538-1.986l-8.026-7.98-11.604-2.038c2.234-6.104 5.285-10.41 9.153-12.92C30.53 2.38 37.286.67 46.973 2.439c9.688 1.769 17.357 11.344 14.653 22.901-.977 4.177-3.115 8.95-6.414 14.323-6.374-2.514-9.864-5.379-10.47-8.596z"/>
                <path fill="#055CF5" d="M35.51 23.776l-20.258-4.077C20.428 5.156 29.977-1.03 43.9 1.144c13.923 2.172 20.234 10.75 18.933 25.73L35.51 23.776z"/>
                <path fill="#055CF5" d="M.728 18.887l42.94 2.258-.156 2.988-42.94-2.259z"/>
                <path stroke="#5A463F" stroke-linecap="round" stroke-linejoin="round" stroke-width="1.6" d="M24.423 48.35s3.398-.393 5.318-2.09M20.394 28.38c1.22-.978 3.362-1.317 5.23-.828" opacity=".6"/>
                <rect width="12" height="12" x="35.24" y="24.364" fill="#F2CCAB" rx="6"/>
            </g>
        </g>
    </g>
</svg>
