<svg xmlns="http://www.w3.org/2000/svg" xmlns:xlink="http://www.w3.org/1999/xlink" width="72" height="72" viewBox="0 0 72 72">
    <defs>
        <path id="a" d="M19.286 9.6c10.65 0 19.285-1.8 19.285-4.8S29.937 0 19.286 0 0 1.8 0 4.8s8.635 4.8 19.286 4.8z"/>
    </defs>
    <g fill="none" fill-rule="evenodd">
        <path fill="#F3F4F8" d="M0 0h72v72H0z"/>
        <path fill="#C7CAD0" d="M36 19c13.263 0 24.015 2.918 24.015 7.78l2.673 14.44c.918.46 1.844.942 2.776 1.447v3C65.464 53.59 52.273 57.4 36 57.4 19.727 57.4 6.536 53.954 6.536 46v-3.333a76.957 76.957 0 0 1 2.795-1.569l2.654-14.56C12.347 21.82 22.96 19 36 19z"/>
        <path fill="#FFF" d="M36 16c13.263 0 24.015 2.918 24.015 7.78l2.477 13.372c1.904 1.578 2.972 3.428 2.972 5.515C65.464 50 52.273 54.4 36 54.4 19.727 54.4 6.536 50 6.536 42.667c0-2.085 1.065-3.932 2.965-5.509l2.484-13.62C12.347 18.82 22.96 16 36 16z"/>
        <path fill="#E3E5EA" d="M36 31.56c13.263 0 24.015-2.917 24.015-7.78C60.015 18.918 49.263 16 36 16s-24.015 2.918-24.015 7.78c0 4.863 10.752 7.78 24.015 7.78z"/>
        <g transform="translate(16.714 18.667)">
            <mask id="b" fill="#fff">
                <use xlink:href="#a"/>
            </mask>
            <use fill="#FFF" xlink:href="#a"/>
            <path fill="#FFE9A5" d="M19.286 14.933c7.692 0 13.928-1.8 13.928-4.8s-6.236-4.8-13.928-4.8c-7.693 0-13.929 1.8-13.929 4.8s6.236 4.8 13.929 4.8z" mask="url(#b)"/>
            <rect width="6.429" height="6.4" x="7.5" y="4.8" fill="#FFE9A5" mask="url(#b)" rx="3.2"/>
            <rect width="7.5" height="7.467" x="16.071" y="3.733" fill="#FFE9A5" mask="url(#b)" rx="3.733"/>
            <rect width="6.429" height="6.4" x="11.786" y="4.267" fill="#FFE9A5" mask="url(#b)" rx="3.2"/>
            <rect width="6.429" height="6.4" x="21.429" y="4.8" fill="#FFE9A5" mask="url(#b)" rx="3.2"/>
        </g>
        <path fill="#055CF5" d="M28.286 46A3.293 3.293 0 0 1 25 42.7c0-.846.317-1.617.837-2.2A3.289 3.289 0 0 1 25 38.3c0-1.823 1.471-3.3 3.286-3.3a3.29 3.29 0 0 1 3.24 2.75h9.948a3.29 3.29 0 0 1 3.24-2.75A3.293 3.293 0 0 1 48 38.3c0 .846-.317 1.618-.838 2.202.521.581.838 1.352.838 2.198 0 1.823-1.471 3.3-3.286 3.3a3.29 3.29 0 0 1-3.24-2.75h-9.948a3.29 3.29 0 0 1-3.24 2.75z"/>
    </g>
</svg>
