<svg xmlns="http://www.w3.org/2000/svg" width="72" height="72" viewBox="0 0 72 72">
    <g fill="none" fill-rule="evenodd">
        <path fill="#EFF7FF" d="M12 34h48l12 8v30H0V42z"/>
        <path fill="#F3F4F8" d="M0 0h72v72H0z"/>
        <g transform="translate(11 4)">
            <path stroke="#C7CAD0" stroke-linejoin="round" stroke-width="3" d="M19 4.8C19 2.112 21.76 0 25 0s6 2.208 6 4.8"/>
            <rect width="50" height="60" y="4" fill="#C7CAD0" rx="1"/>
            <path fill="#FFF" d="M3 4h44v57H3z"/>
            <path fill="#C7CAD0" d="M34 4v3.667C34 8.417 33.309 9 32.418 9H17.582C16.692 9 16 8.417 16 7.667V4"/>
        </g>
        <path fill="#C7CAD0" d="M58 53v12H46z"/>
        <path fill="#E3E5EA" d="M46 65V53h12z"/>
        <path fill="#FFE9A5" d="M18 17h36v20H18zM18 40h32v5H18zM18 48h24v5H18z"/>
        <path stroke="#055CF5" stroke-linecap="square" stroke-width="6" d="M27 35.633L33.89 42 46 31"/>
    </g>
</svg>
