<svg xmlns="http://www.w3.org/2000/svg" xmlns:xlink="http://www.w3.org/1999/xlink" width="72" height="72" viewBox="0 0 72 72">
    <defs>
        <path id="a" d="M.6.6h33.6v33.6H.6z"/>
    </defs>
    <g fill="none" fill-rule="evenodd">
        <path fill="#EFF7FF" d="M12 34h48l12 8v30H0V42z"/>
        <path fill="#F3F4F8" d="M0 0h72v72H0z"/>
        <g fill="#C7CAD0">
            <path d="M22.578 6.253l42.296 12.128-13.782 48.063L8.797 54.316z"/>
            <path d="M26.31 12.108l32.298 9.262-9.262 32.298-32.298-9.261z"/>
        </g>
        <path fill="#FFF" d="M12 11h43.2v50.4H12z"/>
        <g transform="translate(16.2 15.2)">
            <mask id="b" fill="#fff">
                <use xlink:href="#a"/>
            </mask>
            <use fill="#FFE9A5" xlink:href="#a"/>
            <path fill="#055CF5" d="M36.808 34.277a1.103 1.103 0 0 1 1.543.063c.409.437.38 1.118-.063 1.52-2.208 2.005-4.033 3.275-7.828 5.043-2.255 1.05-5.383 1.886-9.399 2.523a1.09 1.09 0 0 1-1.251-.892c-.096-.586.309-1.139.904-1.233 3.83-.608 6.773-1.395 8.813-2.345 3.58-1.667 5.226-2.813 7.281-4.679zM24.395 8.668h.01c6.345.438 11.136 5.84 10.74 12.089.062 3.26-.525 8.378-.172 9.88.074.311.324.653.75 1.025 1.485 1.293-4.853 4.519-7.474 5.793-3.734 1.816-7.397 1.765-8.213 1.765-.817 0-1.129-.835-1.303-2.352-.297-2.595-.136-3.858-.913-4.923-.778-1.064-1.79-1.197-4.644-2.638-2.854-1.442-4.48-2.73-5.934-5.126-.438-.723-.961-2.06-1.184-3.334a1.72 1.72 0 0 1-1.014-1.686c.068-.948.902-1.664 1.865-1.598.083.006.164.018.243.034.718-.376 1.668-.661 2.294-.84 1.793-.512 3.302-1.533 4.53-3.062a11.622 11.622 0 0 1 10.42-5.027zm-.952 6.797l-.254 3.632c-.2 2.884.98 5 3.953 5.208 2.84.2 4.441-1.802 4.636-4.606l.253-3.632a.867.867 0 0 0-.811-.92.867.867 0 0 0-.931.798l-.253 3.632c-.137 1.964-1.07 3.13-2.774 3.01-1.809-.127-2.473-1.317-2.33-3.369l.253-3.632a.867.867 0 0 0-.811-.92.867.867 0 0 0-.931.799zm-7.198.185c-.063.89.617 1.66 1.519 1.723h.001a1.63 1.63 0 0 0 1.747-1.498 1.622 1.622 0 0 0-1.519-1.722 1.63 1.63 0 0 0-1.748 1.497z" mask="url(#b)"/>
        </g>
    </g>
</svg>
