<svg xmlns="http://www.w3.org/2000/svg" xmlns:xlink="http://www.w3.org/1999/xlink" width="72" height="72" viewBox="0 0 72 72">
    <defs>
        <path id="a" d="M0 0h72v72H0z"/>
        <path id="c" d="M36 59.429l-22.25 9.047 1.73-23.956L0 26.156l23.318-5.759L36 0l12.682 20.397L72 26.156 56.52 44.52l1.73 23.956z"/>
        <path id="e" d="M0 0h26v36l-13-7.579L0 36z"/>
    </defs>
    <g fill="none" fill-rule="evenodd">
        <mask id="b" fill="#fff">
            <use xlink:href="#a"/>
        </mask>
        <g mask="url(#b)">
            <g transform="translate(0 2)">
                <mask id="d" fill="#fff">
                    <use xlink:href="#c"/>
                </mask>
                <use fill="#FFE9A5" xlink:href="#c"/>
                <g mask="url(#d)">
                    <g transform="translate(22.967 32.615)">
                        <mask id="f" fill="#fff">
                            <use xlink:href="#e"/>
                        </mask>
                        <use fill="#055CF5" xlink:href="#e"/>
                        <path fill="#00395B" fill-rule="nonzero" d="M11.263 21.292l-.013.01a1.935 1.935 0 0 1-2.67-.338l-.02-.025a2.476 2.476 0 0 0-2.872-.74l-.013.005a1.935 1.935 0 0 1-2.498-.99l-.024-.052a2.476 2.476 0 0 0-2.59-1.43l-.018.004a1.943 1.943 0 0 1-2.176-1.582l-.014-.079a2.476 2.476 0 0 0-2.143-2.02l-.031-.004a1.956 1.956 0 0 1-1.72-2.08l.007-.093A2.476 2.476 0 0 0-7.099 9.4l-.043-.017A1.972 1.972 0 0 1-8.296 6.93l.03-.09a2.476 2.476 0 0 0-.9-2.781l-.05-.036a1.985 1.985 0 0 1-.51-2.675l.046-.071a2.476 2.476 0 0 0-.182-2.913l-.048-.057a1.99 1.99 0 0 1 .171-2.724l.05-.046a2.476 2.476 0 0 0 .544-2.868l-.039-.083a1.979 1.979 0 0 1 .84-2.584l.046-.026a2.476 2.476 0 0 0 1.243-2.65l-.019-.095a1.964 1.964 0 0 1 1.448-2.283l.038-.01A2.476 2.476 0 0 0-3.72-17.33l.004-.088a1.95 1.95 0 0 1 1.963-1.844h.025a2.476 2.476 0 0 0 2.385-1.74l.02-.066a1.939 1.939 0 0 1 2.355-1.295l.015.004a2.476 2.476 0 0 0 2.754-1.095l.023-.038a1.934 1.934 0 0 1 2.604-.669l.012.007a2.476 2.476 0 0 0 2.945-.373l.015-.014a1.937 1.937 0 0 1 2.694 0l.015.014c.79.764 1.99.917 2.945.373l.012-.007a1.934 1.934 0 0 1 2.604.67l.023.037a2.476 2.476 0 0 0 2.754 1.095l.015-.004a1.939 1.939 0 0 1 2.355 1.295l.02.066a2.476 2.476 0 0 0 2.385 1.74h.025a1.95 1.95 0 0 1 1.963 1.844l.004.088a2.476 2.476 0 0 0 1.87 2.268l.036.01a1.964 1.964 0 0 1 1.449 2.283l-.019.094a2.476 2.476 0 0 0 1.243 2.651l.047.026a1.979 1.979 0 0 1 .839 2.584l-.04.083a2.476 2.476 0 0 0 .546 2.868l.049.046a1.99 1.99 0 0 1 .171 2.724l-.048.057a2.476 2.476 0 0 0-.182 2.913l.045.071c.565.886.341 2.06-.51 2.675l-.05.036a2.476 2.476 0 0 0-.9 2.781l.03.09a1.972 1.972 0 0 1-1.153 2.453l-.043.017a2.476 2.476 0 0 0-1.567 2.48l.007.092a1.956 1.956 0 0 1-1.72 2.08l-.03.004c-1.082.129-1.951.949-2.144 2.02l-.014.079a1.943 1.943 0 0 1-2.176 1.582l-.019-.003a2.476 2.476 0 0 0-2.59 1.43l-.023.052a1.935 1.935 0 0 1-2.498.99l-.013-.006a2.476 2.476 0 0 0-2.873.74l-.02.025a1.935 1.935 0 0 1-2.67.338l-.012-.01c-.88-.66-2.09-.66-2.97 0z" mask="url(#f)" opacity=".4"/>
                    </g>
                </g>
            </g>
            <g fill-rule="nonzero" transform="translate(15 12)">
                <path fill="#FFF" d="M19.847 25.808l-5.744 2.748a.165.165 0 0 1-.235-.17l.805-6.392a.165.165 0 0 0-.043-.133l-4.36-4.695a.165.165 0 0 1 .09-.275l6.246-1.2c.048-.009.09-.04.114-.083l3.053-5.647a.165.165 0 0 1 .29 0l3.055 5.647a.165.165 0 0 0 .114.084l6.245 1.2a.165.165 0 0 1 .09.274l-4.36 4.695a.165.165 0 0 0-.042.133l.804 6.393a.165.165 0 0 1-.235.17l-5.744-2.75a.165.165 0 0 0-.143 0z"/>
                <path fill="#FFC81F" d="M19.417 40.862a1.677 1.677 0 0 1-2.313-.293l-.01-.012a2.162 2.162 0 0 0-2.508-.647 1.677 1.677 0 0 1-2.165-.857l-.014-.03a2.168 2.168 0 0 0-2.268-1.252A1.684 1.684 0 0 1 8.254 36.4l-.008-.042a2.182 2.182 0 0 0-1.889-1.78 1.696 1.696 0 0 1-1.49-1.803l.003-.04a2.2 2.2 0 0 0-1.393-2.204 1.709 1.709 0 0 1-1-2.126l.01-.028a2.218 2.218 0 0 0-.806-2.491 1.72 1.72 0 0 1-.442-2.319l.006-.009a2.231 2.231 0 0 0-.165-2.624l-.002-.002a1.725 1.725 0 0 1 .149-2.361 2.226 2.226 0 0 0 .49-2.578l-.01-.02a1.715 1.715 0 0 1 .728-2.239 2.21 2.21 0 0 0 1.109-2.365l-.007-.036a1.702 1.702 0 0 1 1.255-1.98 2.191 2.191 0 0 0 1.654-2.006l.002-.043a1.69 1.69 0 0 1 1.701-1.599 2.175 2.175 0 0 0 2.095-1.528l.011-.037a1.68 1.68 0 0 1 2.041-1.122c.925.249 1.905-.14 2.406-.957l.014-.021a1.676 1.676 0 0 1 2.256-.58 2.162 2.162 0 0 0 2.572-.326l.004-.004a1.679 1.679 0 0 1 2.335 0l.004.004c.69.668 1.737.8 2.572.326a1.676 1.676 0 0 1 2.256.58l.014.021a2.164 2.164 0 0 0 2.406.957 1.68 1.68 0 0 1 2.04 1.122l.012.037a2.175 2.175 0 0 0 2.095 1.528 1.69 1.69 0 0 1 1.701 1.599l.002.043c.052.959.722 1.773 1.654 2.007.878.22 1.43 1.09 1.255 1.979l-.007.036a2.21 2.21 0 0 0 1.109 2.365 1.715 1.715 0 0 1 .727 2.24l-.009.019a2.226 2.226 0 0 0 .49 2.578c.666.624.731 1.658.148 2.36l-.001.003a2.231 2.231 0 0 0-.165 2.624l.006.01a1.72 1.72 0 0 1-.442 2.318 2.218 2.218 0 0 0-.806 2.491l.01.028a1.709 1.709 0 0 1-1 2.126 2.2 2.2 0 0 0-1.393 2.203l.003.041a1.696 1.696 0 0 1-1.49 1.803 2.182 2.182 0 0 0-1.89 1.78l-.007.042a1.684 1.684 0 0 1-1.885 1.37c-.95-.129-1.872.38-2.268 1.252l-.014.03a1.677 1.677 0 0 1-2.165.858 2.162 2.162 0 0 0-2.508.647l-.01.012a1.677 1.677 0 0 1-2.313.293 2.165 2.165 0 0 0-2.597 0z"/>
                <circle cx="20.715" cy="21" r="14.5" stroke="#FABA2C" stroke-width="3"/>
                <path fill="#FFF" d="M20.715 26.5l-6.465 3.4 1.235-7.2-5.231-5.1 7.229-1.05L20.715 10l3.233 6.55 7.23 1.05-5.232 5.1 1.235 7.2z"/>
            </g>
        </g>
    </g>
</svg>
